<mxfile host="app.diagrams.net" modified="2023-04-27T09:50:14.011Z" agent="Mozilla/5.0 (Macintosh; Intel Mac OS X 10_15_7) AppleWebKit/537.36 (KHTML, like Gecko) Chrome/112.0.0.0 Safari/537.36" version="21.2.3" etag="XPdwH9_eeSXWz6yleWaR" type="github">
  <diagram name="Pagina-1" id="xxmqohCIHejxJ161lcMb">
    <mxGraphModel>
      <root>
        <mxCell id="0" />
        <mxCell id="1" parent="0" />
      </root>
    </mxGraphModel>
  </diagram>
</mxfile>
